<?xml version="1.0" standalone="no"?>
<!DOCTYPE svg PUBLIC "-//W3C//DTD SVG 20010904//EN" "http://www.w3.org/TR/2001/REC-SVG-20010904/DTD/svg10.dtd">
<svg xmlns="http://www.w3.org/2000/svg" version="1.0" width="500.000000pt" height="500.000000pt" viewBox="0 0 500.000000 500.000000" preserveAspectRatio="xMidYMid meet">
<metadata>
Created by potrace 1.16, written by Peter Selinger 2001-2019
<meta name="Producer" content="Online-Convert"/></metadata>
<g transform="translate(0.000000,500.000000) scale(0.100000,-0.100000)" fill="#000000" stroke="none">
<path d="M1907 3406 c-115 -31 -187 -124 -187 -241 0 -138 51 -211 312 -443 127 -113 203 -198 250 -282 46 -80 45 -83 -20 -123 -139 -86 -234 -240 -251 -407 l-6 -65 -52 -3 c-176 -10 -340 84 -411 235 -25 53 -27 68 -27 183 0 119 1 128 31 190 59 123 146 195 284 232 l65 18 -75 -6 c-134 -10 -260 -68 -324 -150 -55 -69 -79 -147 -79 -254 0 -143 40 -236 145 -338 83 -82 250 -142 394 -142 53 0 54 -1 54 -29 0 -51 39 -157 81 -220 99 -148 288 -244 524 -266 104 -9 287 9 658 66 282 44 360 52 517 56 322 9 554 -43 717 -160 24 -17 45 -28 48 -25 9 9 -93 97 -172 148 -155 102 -295 135 -533 127 -163 -6 -269 -24 -540 -92 -214 -53 -368 -83 -494 -96 -401 -41 -701 141 -732 444 l-6 64 28 7 c57 14 153 69 198 112 l46 44 0 -78 c0 -93 -14 -147 -45 -178 l-24 -24 142 0 c134 0 140 1 118 16 -47 33 -51 63 -51 363 l0 279 23 6 c42 11 183 6 242 -9 79 -20 169 -66 228 -116 l47 -41 0 -186 c0 -200 -8 -251 -45 -288 l-24 -24 142 0 c134 0 140 1 118 16 -50 35 -51 48 -51 560 0 514 1 527 53 552 17 8 -12 11 -120 11 l-142 1 24 -24 c39 -39 45 -86 45 -344 l0 -242 -52 41 c-106 85 -228 123 -385 124 l-103 0 0 173 c0 186 8 225 51 256 22 15 16 16 -118 16 l-142 0 24 -24 c29 -29 45 -84 45 -158 l0 -57 -67 67 c-38 37 -134 120 -215 184 -219 176 -278 252 -278 359 0 76 25 117 90 152 101 52 207 31 290 -59 39 -42 88 -130 91 -164 3 -28 17 105 18 172 l1 66 -28 -10 c-23 -9 -49 -6 -133 16 -115 29 -142 31 -212 12z m421 -1188 c-7 -111 -32 -186 -85 -248 -41 -48 -117 -100 -145 -100 -16 0 -18 5 -13 38 31 183 91 295 199 374 21 15 41 28 44 28 3 0 2 -42 0 -92z"/>
</g>
</svg>
